<?xml version="1.0" encoding="UTF-8" standalone="no"?>
<!DOCTYPE svg PUBLIC "-//W3C//DTD SVG 1.1//EN" "http://www.w3.org/Graphics/SVG/1.1/DTD/svg11.dtd">
<svg width="100%" height="100%" viewBox="0 0 450 450" version="1.1" xmlns="http://www.w3.org/2000/svg" xmlns:xlink="http://www.w3.org/1999/xlink" xml:space="preserve" xmlns:serif="http://www.serif.com/" style="fill-rule:evenodd;clip-rule:evenodd;stroke-linejoin:round;stroke-miterlimit:2;">
    <g transform="matrix(1.49239,0,0,1.49239,-99.1467,-46.2134)">
        <g id="Hintergrund">
            <circle cx="217.2" cy="181.731" r="150.765" style="fill:rgb(214,132,82);"/>
        </g>
    </g>
    <g id="Divers" transform="matrix(1,0,0,1,-915.7,-245.918)">
        <clipPath id="_clip1">
            <circle cx="1140.7" cy="470.918" r="225"/>
        </clipPath>
        <g clip-path="url(#_clip1)">
            <g id="Kopf-Divers" serif:id="Kopf Divers">
                <g transform="matrix(1,0,0,1,918.692,271.918)">
                    <path d="M223.248,278.262C197.047,278.753 160.551,308.15 141.804,300.755C123.354,293.478 108.815,273.321 103.083,257.103C93.44,229.82 91.36,207.096 91.391,180.954C91.426,150.91 97.18,119.552 102.208,101.731C105.565,89.832 115.645,63.623 122.078,58.62C128.51,53.617 133.513,55.046 133.513,55.046C133.513,55.046 142.805,38.607 151.382,32.889C154.064,31.101 157.471,28.383 160.842,26.697C166.798,23.719 178.251,17.29 187.119,15.021C211.356,8.82 228.886,8.836 255.019,13.591C268.862,16.11 282.417,26.457 292.186,33.604C300.619,39.775 313.628,56.476 313.628,56.476C313.628,56.476 325.006,60.793 331.839,72.029C338.667,83.256 344.275,113.921 347.657,131.093C351.1,148.575 352.531,176.574 352.498,194.921C352.458,217.096 345.306,242.839 336.747,259.88C329.535,274.24 320.706,288.826 301.012,298.343C281.473,307.784 249.783,277.764 223.248,278.262Z" style="fill:rgb(109,76,65);"/>
                </g>
                <g transform="matrix(1.01624,0,0,1,-19.056,0)">
                    <rect x="1110.31" y="570.347" width="61.825" height="57.059" style="fill:rgb(228,152,0);"/>
                </g>
                <g transform="matrix(1,0,0,1.00855,-0.00951561,-5.94809)">
                    <path d="M1050.2,419.222C1063.13,365.616 1095.64,326.714 1140.73,326.714C1185.83,326.714 1218.91,364.492 1231.84,418.112C1232.88,417.908 1233.94,417.803 1235.03,417.803C1247.93,417.803 1254.98,432.771 1254.98,451.209C1254.98,469.646 1247.93,484.615 1235.03,484.615C1234.85,484.615 1234.67,484.612 1234.5,484.606C1219.46,535.845 1200.82,584.617 1140.71,584.867C1084.81,585.1 1062.55,539.086 1047.53,485.702C1047.33,485.709 1047.14,485.712 1046.94,485.712C1034.04,485.712 1026.42,470.177 1026.42,451.739C1026.42,433.302 1034.04,418.9 1046.94,418.9C1048.05,418.9 1049.13,419.01 1050.2,419.222Z" style="fill:rgb(251,193,27);"/>
                </g>
                <g transform="matrix(1.21176,0,0,1.32512,-226.009,-157.166)">
                    <ellipse cx="1090.79" cy="464.659" rx="10.316" ry="13.073" style="fill:rgb(68,68,68);"/>
                </g>
                <g transform="matrix(1.21176,0,0,1.32512,-136.142,-157.188)">
                    <ellipse cx="1090.79" cy="464.659" rx="10.316" ry="13.073" style="fill:rgb(68,68,68);"/>
                </g>
                <g transform="matrix(1,0,0,1.09858,-0.160433,-51.7721)">
                    <path d="M1171.45,527.625C1172.68,527.29 1174.01,527.65 1174.83,528.542C1175.66,529.434 1175.83,530.687 1175.26,531.732C1170.52,539.992 1156.91,545.54 1140.86,545.54C1124.88,545.54 1111.32,540.043 1106.6,531.813C1106.03,530.785 1106.19,529.544 1107,528.661C1107.82,527.779 1109.13,527.426 1110.34,527.765C1130.39,533.13 1150.74,533.139 1171.45,527.625Z" style="fill:rgb(81,63,53);"/>
                </g>
                <g transform="matrix(0.908086,0,0,1,105.45,-5.33467)">
                    <path d="M1139.89,510.143C1131.57,509.885 1122.96,504.111 1121.69,501.981C1120.42,499.839 1123.17,498.433 1125.44,499.036C1127.7,499.633 1134.94,500.887 1139.89,500.844L1140.37,500.844C1145.32,500.887 1152.37,499.633 1154.63,499.036C1156.9,498.433 1159.65,499.839 1158.38,501.981C1157.11,504.111 1148.69,509.885 1140.37,510.143L1139.89,510.143Z" style="fill:rgb(228,149,0);"/>
                </g>
                <g transform="matrix(1,0,0,1,915.7,243.918)">
                    <path d="M319.689,124.994C319.689,124.994 345.711,182.153 341.155,187.296C335.153,194.072 323.463,205.903 313.726,186.335C300.353,159.464 300.487,139.634 300.487,139.634C300.487,139.634 296.156,151.533 285.866,151.214C278.768,150.993 269.947,148.881 269.947,148.881C274.377,155.078 280.159,161.545 288.126,168.45C282.048,169.377 273.54,163.789 262.51,151.982C263.85,157.822 266.573,163.317 270.743,168.45C267.949,171.049 256.998,160.96 241.468,143.748C242.904,149.375 246.161,156.822 251.842,166.693C246.331,169.698 217.592,145.11 200.784,128.181C200.784,128.181 182.973,127.395 172.909,133.799C162.846,140.203 156.54,142.486 150.095,156.914C144.309,169.866 146.972,194.356 132.242,196.161C124.182,197.149 113.844,180.801 113.844,180.801L126.652,114.93L211.534,61.698L306.423,93.888L319.689,124.994Z" style="fill:rgb(109,76,65);"/>
                </g>
            </g>
            <g id="Kleidung-Divers" serif:id="Kleidung Divers">
                <path d="M1107.08,585.472L1107.08,695.9L992.439,695.9C992.439,695.9 992.436,695.9 992.436,655.743C992.436,589.664 1041.42,592.921 1107.08,585.472ZM1174.32,585.472C1239.98,592.921 1288.96,589.664 1288.96,655.743C1288.96,695.9 1288.96,695.9 1288.96,695.9L1174.32,695.9L1174.32,585.472Z" style="fill:rgb(173,83,27);"/>
                <g transform="matrix(1.19554,0,0,1,-229.815,0)">
                    <rect x="1120.95" y="621.924" width="50.811" height="73.994" style="fill:rgb(216,216,216);"/>
                </g>
                <path d="M1062.9,590.168C1070.2,588.298 1097.72,586.224 1098.65,586.273L1120.58,695.9L1096.07,695.9L1056.89,654.183L1072.77,632.387L1048.75,615.695L1062.9,590.168ZM1219.34,590.171C1212.51,588.588 1183.66,586.224 1182.73,586.273L1160.8,695.9L1185.31,695.9L1224.49,654.183L1208.61,632.387L1232.62,615.695L1219.34,590.171Z" style="fill:rgb(99,38,0);"/>
                <g transform="matrix(1,0,0,1,-0.758364,0)">
                    <circle cx="1141.46" cy="652.504" r="6.002" style="fill:rgb(183,183,183);"/>
                </g>
                <g transform="matrix(1,0,0,1,-0.758364,27.2677)">
                    <circle cx="1141.46" cy="652.504" r="6.002" style="fill:rgb(183,183,183);"/>
                </g>
                <g transform="matrix(1,0,0,1,-0.688744,0)">
                    <path d="M1099,586.273L1112.4,653.054L1141.38,621.897C1124.69,614.732 1114.14,602.574 1110,585.183C1106.33,585.657 1102.67,586.031 1099,586.273ZM1183.78,586.254L1170.38,653.036L1141.4,621.878C1158.09,614.713 1168.64,602.555 1172.78,585.164C1176.44,585.639 1180.11,586.012 1183.78,586.254Z" style="fill:white;"/>
                </g>
            </g>
        </g>
    </g>
</svg>
