<?xml version="1.0" encoding="UTF-8" standalone="no"?><!DOCTYPE svg PUBLIC "-//W3C//DTD SVG 1.1//EN" "http://www.w3.org/Graphics/SVG/1.1/DTD/svg11.dtd"><svg width="100%" height="100%" viewBox="0 0 1875 1875" version="1.1" xmlns="http://www.w3.org/2000/svg" xmlns:xlink="http://www.w3.org/1999/xlink" xml:space="preserve" xmlns:serif="http://www.serif.com/" style="fill-rule:evenodd;clip-rule:evenodd;stroke-linejoin:round;stroke-miterlimit:2;"><g id="Hintergrund"><circle cx="937.5" cy="937.5" r="937.5" style="fill:#d8d6be;"/></g><g id="Frau"><clipPath id="_clip1"><circle cx="937.5" cy="937.5" r="937.5"/></clipPath><g clip-path="url(#_clip1)"><g id="Kopf-Frau" serif:id="Kopf Frau"><path d="M429.072,1778.07c-54.455,-450.554 -85.584,-854.589 -84.904,-1041.35c1.205,-331.015 267.035,-590.13 595.948,-590.13c328.912,-0 585.854,244.11 595.948,590.13c3.891,133.394 -30.089,556.218 -90.666,1041.35l-1016.33,-0Z" style="fill:#6d4c41;"/><rect x="806.606" y="1351.79" width="261.788" height="237.745" style="fill:#e49800;"/><ellipse cx="937.622" cy="888.821" rx="441.351" ry="495.377" style="fill:#fbc11b;"/><path d="M360.653,598.314c64.934,-64.543 161.111,-131.456 275.403,-187.015c210.034,-102.101 412.434,-132.406 489.971,-79.477c79.733,-30.12 215.462,14.597 334.629,116.601c45.41,83.493 72.278,180.994 75.408,288.295c0.791,27.145 0.015,66.277 -2.234,115.47c-82.085,9.932 -200.651,-36.831 -305.611,-128.172c-68.046,-59.217 -118.324,-126.684 -145.677,-189.333c-64.734,68.738 -166.405,141.31 -288.874,200.844c-178.964,86.997 -352.386,121.869 -447.749,97.536c-1.259,-36.479 -1.852,-68.779 -1.751,-96.345c0.174,-47.832 5.873,-94.162 16.485,-138.404Z" style="fill:#6d4c41;"/><ellipse cx="741.944" cy="915.186" rx="52.083" ry="72.181" style="fill:#444;"/><ellipse cx="1133.06" cy="914.642" rx="52.083" ry="72.181" style="fill:#444;"/><path d="M1065.92,1169.43c5.033,-1.325 10.379,0.382 13.714,4.379c3.335,3.996 4.056,9.561 1.852,14.276c-19.082,38.541 -76.34,64.523 -143.985,64.523c-67.553,0 -124.746,-25.911 -143.586,-64.515c-2.173,-4.617 -1.478,-10.073 1.783,-13.997c3.26,-3.924 8.497,-5.607 13.433,-4.316c85.657,21.424 171.223,21.536 256.789,-0.35Z" style="fill:#513f35;"/><path d="M936.902,1091.21c-34.691,-1.078 -70.548,-25.132 -75.819,-34.01c-5.299,-8.924 6.136,-14.781 15.618,-12.271c9.397,2.487 39.565,7.714 60.201,7.536l1.988,0c20.636,0.178 50.012,-5.049 59.409,-7.536c9.482,-2.51 20.917,3.347 15.618,12.271c-5.271,8.878 -40.336,32.932 -75.027,34.01l-1.988,-0Z" style="fill:#e49500;"/></g><g id="Kleidung-Frau" serif:id="Kleidung Frau"><path d="M797.421,1414.81l-0,460.115l-477.673,0l-0.016,-167.32c0,-143.028 204.112,-261.76 477.689,-292.795Zm280.158,-0c273.577,31.035 477.689,149.767 477.689,292.795l-0.016,167.32l-477.673,0l0,-460.115Z" style="fill:#8b8760;"/><rect x="810.945" y="1566.69" width="253.11" height="308.308" style="fill:#d8d8d8;"/><path d="M610.525,1451.56c41.242,-14.588 147.889,-33.623 151.772,-33.419l91.367,456.781l-102.131,0l-163.241,-173.82l66.162,-90.819l-100.062,-69.549l56.133,-89.174Zm653.864,0c-41.242,-14.588 -147.888,-33.623 -151.772,-33.419l-91.367,456.781l102.131,0l163.241,-173.82l-66.162,-90.819l100.063,-69.549l-56.134,-89.174Z" style="fill:#646145;"/><circle cx="937.5" cy="1694.11" r="25.007" style="fill:#b7b7b7;"/><circle cx="937.5" cy="1807.72" r="25.007" style="fill:#b7b7b7;"/><path d="M760.875,1418.14l55.833,278.258l120.745,-129.823c-69.519,-29.854 -113.505,-80.512 -130.731,-152.974c-15.282,1.976 -30.565,3.531 -45.847,4.539Zm353.25,-0.078l-55.833,278.258l-120.745,-129.824c69.519,-29.853 113.505,-80.511 130.731,-152.973c15.282,1.976 30.565,3.531 45.847,4.539Z" style="fill:#fff;"/></g></g></g></svg>