<?xml version="1.0" encoding="UTF-8" standalone="no"?>
<!DOCTYPE svg PUBLIC "-//W3C//DTD SVG 1.1//EN" "http://www.w3.org/Graphics/SVG/1.1/DTD/svg11.dtd">
<svg width="100%" height="100%" viewBox="0 0 450 450" version="1.1" xmlns="http://www.w3.org/2000/svg" xmlns:xlink="http://www.w3.org/1999/xlink" xml:space="preserve" xmlns:serif="http://www.serif.com/" style="fill-rule:evenodd;clip-rule:evenodd;stroke-linejoin:round;stroke-miterlimit:2;">
    <g transform="matrix(1.49239,0,0,1.49239,-99.1467,-46.2134)">
        <g id="Hintergrund">
            <circle cx="217.2" cy="181.731" r="150.765" style="fill:rgb(194,190,216);"/>
        </g>
    </g>
    <g id="Frau" transform="matrix(1,0,0,1,-915.7,-245.918)">
        <clipPath id="_clip1">
            <circle cx="1140.7" cy="470.918" r="225"/>
        </clipPath>
        <g clip-path="url(#_clip1)">
            <g id="Kopf-Frau" serif:id="Kopf Frau">
                <path d="M1018.68,672.655C1005.61,564.522 998.137,467.554 998.3,422.73C998.59,343.287 1062.39,281.099 1141.33,281.099C1220.27,281.099 1281.93,339.686 1284.36,422.73C1285.29,454.745 1277.13,556.223 1262.6,672.655L1018.68,672.655Z" style="fill:rgb(109,76,65);"/>
                <g transform="matrix(1.01624,0,0,1,-19.056,0)">
                    <rect x="1110.31" y="570.347" width="61.825" height="57.059" style="fill:rgb(228,152,0);"/>
                </g>
                <g transform="matrix(1.57101,0,0,1.51269,-657.318,-240.877)">
                    <ellipse cx="1144.52" cy="462.826" rx="67.424" ry="78.595" style="fill:rgb(251,193,27);"/>
                </g>
                <path d="M1002.26,389.513C1017.84,374.023 1040.92,357.964 1068.35,344.63C1118.76,320.126 1167.34,312.852 1185.95,325.555C1205.08,318.327 1237.66,329.059 1266.26,353.54C1277.16,373.578 1283.6,396.978 1284.36,422.73C1284.55,429.245 1284.36,438.637 1283.82,450.443C1264.12,452.827 1235.66,441.604 1210.47,419.682C1194.14,405.47 1182.08,389.278 1175.51,374.242C1159.97,390.739 1135.57,408.156 1106.18,422.445C1063.23,443.324 1021.61,451.693 998.72,445.853C998.418,437.098 998.276,429.346 998.3,422.73C998.342,411.251 999.71,400.132 1002.26,389.513Z" style="fill:rgb(109,76,65);"/>
                <g transform="matrix(1.21176,0,0,1.32512,-228.009,-150.166)">
                    <ellipse cx="1090.79" cy="464.659" rx="10.316" ry="13.073" style="fill:rgb(68,68,68);"/>
                </g>
                <g transform="matrix(1.21176,0,0,1.32512,-134.142,-150.297)">
                    <ellipse cx="1090.79" cy="464.659" rx="10.316" ry="13.073" style="fill:rgb(68,68,68);"/>
                </g>
                <g transform="matrix(1,0,0,1.09858,-0.160433,-52.7721)">
                    <path d="M1171.68,527.368C1172.89,527.079 1174.17,527.452 1174.97,528.325C1175.77,529.198 1175.95,530.414 1175.42,531.444C1170.84,539.864 1157.1,545.54 1140.86,545.54C1124.65,545.54 1110.92,539.879 1106.4,531.445C1105.88,530.437 1106.05,529.245 1106.83,528.388C1107.61,527.53 1108.87,527.163 1110.05,527.445C1130.61,532.125 1151.14,532.149 1171.68,527.368Z" style="fill:rgb(81,63,53);"/>
                </g>
                <g transform="matrix(1,0,0,1,0.664555,-2.33467)">
                    <path d="M1139.89,510.143C1131.57,509.885 1122.96,504.111 1121.69,501.981C1120.42,499.839 1123.17,498.433 1125.44,499.036C1127.7,499.633 1134.94,500.887 1139.89,500.844L1140.37,500.844C1145.32,500.887 1152.37,499.633 1154.63,499.036C1156.9,498.433 1159.65,499.839 1158.38,501.981C1157.11,504.111 1148.69,509.885 1140.37,510.143L1139.89,510.143Z" style="fill:rgb(228,149,0);"/>
                </g>
            </g>
            <g id="Kleidung-Frau" serif:id="Kleidung Frau">
                <path d="M1107.08,585.472L1107.08,695.9L992.439,695.9L992.436,655.743C992.436,621.416 1041.42,592.921 1107.08,585.472ZM1174.32,585.472C1239.98,592.921 1288.96,621.416 1288.96,655.743L1288.96,695.9L1174.32,695.9L1174.32,585.472Z" style="fill:rgb(102,96,139);"/>
                <g transform="matrix(1.19554,0,0,1,-229.815,0)">
                    <rect x="1120.95" y="621.924" width="50.811" height="73.994" style="fill:rgb(216,216,216);"/>
                </g>
                <path d="M1062.23,594.293C1072.12,590.792 1097.72,586.224 1098.65,586.273L1120.58,695.9L1096.07,695.9L1056.89,654.183L1072.77,632.387L1048.75,615.695L1062.23,594.293ZM1219.15,594.293C1209.26,590.792 1183.66,586.224 1182.73,586.273L1160.8,695.9L1185.31,695.9L1224.49,654.183L1208.61,632.387L1232.62,615.695L1219.15,594.293Z" style="fill:rgb(74,69,100);"/>
                <g transform="matrix(1,0,0,1,-0.758364,0)">
                    <circle cx="1141.46" cy="652.504" r="6.002" style="fill:rgb(183,183,183);"/>
                </g>
                <g transform="matrix(1,0,0,1,-0.758364,27.2677)">
                    <circle cx="1141.46" cy="652.504" r="6.002" style="fill:rgb(183,183,183);"/>
                </g>
                <g transform="matrix(1,0,0,1,-0.688744,0)">
                    <path d="M1099,586.273L1112.4,653.054L1141.38,621.897C1124.69,614.732 1114.14,602.574 1110,585.183C1106.33,585.657 1102.67,586.031 1099,586.273ZM1183.78,586.254L1170.38,653.036L1141.4,621.878C1158.09,614.713 1168.64,602.555 1172.78,585.164C1176.44,585.639 1180.11,586.012 1183.78,586.254Z" style="fill:white;"/>
                </g>
            </g>
        </g>
    </g>
</svg>
