<?xml version="1.0" encoding="UTF-8" standalone="no"?>
<!DOCTYPE svg PUBLIC "-//W3C//DTD SVG 1.1//EN" "http://www.w3.org/Graphics/SVG/1.1/DTD/svg11.dtd">
<svg width="100%" height="100%" viewBox="0 0 450 450" version="1.1" xmlns="http://www.w3.org/2000/svg" xmlns:xlink="http://www.w3.org/1999/xlink" xml:space="preserve" xmlns:serif="http://www.serif.com/" style="fill-rule:evenodd;clip-rule:evenodd;stroke-linejoin:round;stroke-miterlimit:2;">
    <g transform="matrix(1.49239,0,0,1.49239,-99.1467,-46.2134)">
        <g id="Hintergrund">
            <circle cx="217.2" cy="181.731" r="150.765" style="fill:rgb(255,235,145);"/>
        </g>
    </g>
    <g id="Mann" transform="matrix(1,0,0,1.00855,-915.71,-251.866)">
        <clipPath id="_clip1">
            <ellipse cx="1140.71" cy="472.825" rx="225" ry="223.093"/>
        </clipPath>
        <g clip-path="url(#_clip1)">
            <g id="Kopf-Mann" serif:id="Kopf Mann">
                <g transform="matrix(1.01624,0,0,1,-19.056,0)">
                    <rect x="1110.31" y="570.347" width="61.825" height="57.059" style="fill:rgb(228,152,0);"/>
                </g>
                <path d="M1044.48,419.222C1057.41,365.616 1095.64,326.714 1140.73,326.714C1185.83,326.714 1224.05,365.626 1236.98,419.246C1238.03,419.042 1239.09,418.937 1240.17,418.937C1253.08,418.937 1263.55,433.905 1263.55,452.343C1263.55,470.78 1253.08,485.749 1240.17,485.749C1240,485.749 1239.82,485.746 1239.64,485.74C1224.61,536.979 1189.53,591.757 1140.73,591.757C1091.92,591.757 1056.84,539.086 1041.81,485.702C1041.62,485.709 1041.42,485.712 1041.23,485.712C1028.32,485.712 1017.85,470.744 1017.85,452.306C1017.85,433.869 1028.32,418.9 1041.23,418.9C1042.33,418.9 1043.42,419.01 1044.48,419.222Z" style="fill:rgb(251,193,27);"/>
                <g transform="matrix(1.11601,0,0,1.32512,-34.2104,-158.089)">
                    <ellipse cx="1090.79" cy="464.659" rx="10.316" ry="13.073" style="fill:rgb(68,68,68);"/>
                </g>
                <g transform="matrix(1.11601,0,0,1.32512,-119.049,-158.136)">
                    <ellipse cx="1090.79" cy="464.659" rx="10.316" ry="13.073" style="fill:rgb(68,68,68);"/>
                </g>
                <g transform="matrix(1,0,0,1,-0.160433,2.98305)">
                    <path d="M1171.15,526.937C1172.42,526.564 1173.79,526.999 1174.6,528.036C1175.41,529.072 1175.51,530.496 1174.83,531.625C1169.74,539.72 1156.45,545.54 1140.86,545.54C1125.32,545.54 1112.06,539.756 1107.01,531.66C1106.33,530.551 1106.41,529.147 1107.21,528.123C1108.01,527.1 1109.36,526.669 1110.61,527.038C1130.81,532.753 1150.98,532.705 1171.15,526.937Z" style="fill:rgb(81,63,53);"/>
                </g>
                <g transform="matrix(0.774134,0,0,1,258.16,-6.33467)">
                    <path d="M1139.89,510.143C1131.57,509.885 1122.96,504.111 1121.69,501.981C1120.42,499.839 1123.17,498.433 1125.44,499.036C1127.7,499.633 1134.94,500.887 1139.89,500.844L1140.37,500.844C1145.32,500.887 1152.37,499.633 1154.63,499.036C1156.9,498.433 1159.65,499.839 1158.38,501.981C1157.11,504.111 1148.69,509.885 1140.37,510.143L1139.89,510.143Z" style="fill:rgb(228,149,0);"/>
                </g>
                <g transform="matrix(1.02333,0,0,1.19882,-36.956,-73.1718)">
                    <path d="M1150.81,298.464C1211.87,298.464 1263.38,338.956 1261.45,388.762C1260.08,424.142 1252.81,426.466 1249.83,426.96C1245.55,427.666 1229.33,393.257 1226.43,391.488C1222.71,389.215 1208.61,391.018 1192.94,388.194C1176.63,385.254 1161.79,376.456 1160.59,376.802C1157.97,377.562 1169.8,392.468 1164.23,394.692C1156.42,397.804 1136.48,376.301 1134.02,376.802C1131.28,377.36 1140.38,388.116 1123.58,386.717C1119.51,386.379 1110.98,381.634 1103.69,376.802C1097.15,372.472 1091.67,367.939 1090.5,368.657C1084.82,372.136 1073.69,382.302 1066.95,394.692C1059.72,407.958 1058.09,423.285 1055.23,424.461C1049.01,427.015 1040.16,407.414 1040.16,388.762C1040.16,338.925 1089.74,298.464 1150.81,298.464Z" style="fill:rgb(109,76,65);"/>
                </g>
            </g>
            <g id="Kleidung-Mann" serif:id="Kleidung Mann">
                <g transform="matrix(1,0,0,0.991525,406.059,5.91572)">
                    <path d="M701.041,584.51C596.412,596.481 586.396,588.737 586.396,655.382C586.396,695.882 586.4,695.882 586.4,695.882L701.041,695.882L701.041,584.51ZM768.26,584.51C872.89,596.481 882.906,588.737 882.906,655.382C882.906,695.882 882.902,695.882 882.902,695.882L768.26,695.882L768.26,584.51Z" style="fill:rgb(217,194,69);"/>
                </g>
                <g transform="matrix(1.19554,0,0,1,-229.815,0)">
                    <rect x="1120.95" y="621.924" width="50.811" height="73.994" style="fill:rgb(216,216,216);"/>
                </g>
                <path d="M1062.23,590.293C1068.65,589.55 1093.95,586.839 1098.65,586.273L1120.58,695.9L1096.07,695.9L1056.89,654.183L1072.77,632.387L1048.75,615.695L1062.23,590.293ZM1219.15,590.293C1207.59,588.873 1186.58,586.621 1182.73,586.273L1160.8,695.9L1185.31,695.9L1224.49,654.183L1208.61,632.387L1232.62,615.695L1219.15,590.293Z" style="fill:rgb(159,141,59);"/>
                <g transform="matrix(1,0,0,1,-0.758364,0)">
                    <circle cx="1141.46" cy="652.504" r="6.002" style="fill:rgb(183,183,183);"/>
                </g>
                <g transform="matrix(1,0,0,1,-0.758364,27.2677)">
                    <circle cx="1141.46" cy="652.504" r="6.002" style="fill:rgb(183,183,183);"/>
                </g>
                <g transform="matrix(1,0,0,1,-0.688744,0)">
                    <path d="M1099,586.273L1112.4,653.054L1141.38,621.897C1124.69,614.732 1114.14,602.574 1110,585.183C1106.33,585.657 1102.67,586.031 1099,586.273ZM1183.78,586.254L1170.38,653.036L1141.4,621.878C1158.09,614.713 1168.64,602.555 1172.78,585.164C1176.44,585.639 1180.11,586.012 1183.78,586.254Z" style="fill:white;"/>
                </g>
            </g>
        </g>
    </g>
</svg>
