<?xml version="1.0" encoding="UTF-8" standalone="no"?><!DOCTYPE svg PUBLIC "-//W3C//DTD SVG 1.1//EN" "http://www.w3.org/Graphics/SVG/1.1/DTD/svg11.dtd"><svg width="100%" height="100%" viewBox="0 0 1875 1875" version="1.1" xmlns="http://www.w3.org/2000/svg" xmlns:xlink="http://www.w3.org/1999/xlink" xml:space="preserve" xmlns:serif="http://www.serif.com/" style="fill-rule:evenodd;clip-rule:evenodd;stroke-linejoin:round;stroke-miterlimit:2;"><g id="Hintergrund"><circle cx="937.5" cy="937.5" r="937.5" style="fill:#d8d6be;"/></g><g id="Mann"><clipPath id="_clip1"><circle cx="937.5" cy="937.5" r="937.5"/></clipPath><g clip-path="url(#_clip1)"><g id="Kopf-Mann" serif:id="Kopf Mann"><rect x="806.567" y="1347.32" width="261.788" height="239.777" style="fill:#e49800;"/><path d="M536.554,712.246c53.881,-225.268 213.151,-388.746 401.029,-388.746c187.9,0 347.186,163.518 401.052,388.846c4.35,-0.858 8.789,-1.3 13.3,-1.3c53.763,-0 97.413,62.903 97.413,140.382c-0,77.479 -43.65,140.382 -97.413,140.382c-0.737,0 -1.471,-0.012 -2.21,-0.036c-62.659,215.321 -208.829,445.511 -412.142,445.511c-203.361,-0 -349.561,-221.336 -412.167,-445.672c-0.809,0.029 -1.618,0.044 -2.43,0.044c-53.764,-0 -97.413,-62.904 -97.413,-140.383c0,-77.479 43.649,-140.382 97.413,-140.382c4.602,0 9.13,0.461 13.568,1.354Z" style="fill:#fbc11b;"/><ellipse cx="1114.21" cy="873.69" rx="47.968" ry="72.798" style="fill:#444;"/><ellipse cx="760.712" cy="873.493" rx="47.968" ry="72.798" style="fill:#444;"/><path d="M1063.66,1177.43c5.289,-1.571 11.001,0.261 14.389,4.615c3.389,4.354 3.762,10.34 0.94,15.082c-21.179,34.021 -76.563,58.475 -141.529,58.475c-64.768,0 -120.013,-24.306 -141.062,-58.328c-2.807,-4.657 -2.463,-10.561 0.866,-14.86c3.329,-4.3 8.958,-6.111 14.17,-4.56c84.135,24.016 168.18,23.815 252.226,-0.424Z" style="fill:#513f35;"/><path d="M936.997,1067.7c-26.855,-1.087 -54.613,-25.346 -58.694,-34.3c-4.102,-9.001 4.75,-14.907 12.091,-12.376c7.274,2.509 30.628,7.78 46.603,7.601l1.54,-0c15.974,0.179 38.715,-5.092 45.99,-7.601c7.34,-2.531 16.192,3.375 12.09,12.376c-4.08,8.954 -31.226,33.213 -58.08,34.3l-1.54,0Z" style="fill:#e49500;"/><path d="M937.468,146.667c260.381,-0 480.007,203.99 471.777,454.901c-5.846,178.235 -36.822,189.944 -49.564,192.432c-18.219,3.559 -87.389,-169.789 -99.748,-178.698c-15.889,-11.454 -75.983,-2.367 -142.797,-16.596c-69.541,-14.809 -132.838,-59.134 -137.941,-57.387c-11.178,3.826 39.268,78.917 15.493,90.123c-33.258,15.676 -118.298,-92.652 -128.813,-90.123c-11.679,2.808 27.159,56.995 -44.485,49.948c-17.342,-1.706 -53.743,-25.61 -84.824,-49.948c-27.858,-21.815 -51.235,-44.654 -56.234,-41.035c-24.214,17.527 -71.659,68.741 -100.428,131.158c-30.804,66.833 -37.772,144.044 -49.97,149.969c-26.496,12.87 -64.243,-85.877 -64.243,-179.843c-0,-251.067 211.396,-454.901 471.777,-454.901Z" style="fill:#6d4c41;"/></g><g id="Kleidung-Mann" serif:id="Kleidung Mann"><path d="M797.46,1410.88c-435.955,49.877 -477.688,17.613 -477.688,295.297c0,168.751 0.015,168.751 0.015,168.751l477.673,-0l0,-464.048Zm280.08,-0c435.955,49.877 477.688,17.613 477.688,295.297c-0,168.751 -0.015,168.751 -0.015,168.751l-477.673,-0l-0,-464.048Z" style="fill:#8b8760;"/><rect x="810.905" y="1564.06" width="253.11" height="310.943" style="fill:#d8d8d8;"/><path d="M610.486,1431.13c26.773,-3.125 132.182,-14.514 151.772,-16.896l91.367,460.686l-102.131,-0l-163.241,-175.307l66.161,-91.594l-100.062,-70.144l56.134,-106.745Zm653.863,-0c-48.177,-5.967 -135.732,-15.432 -151.772,-16.896l-91.367,460.686l102.131,-0l163.241,-175.307l-66.161,-91.594l100.062,-70.144l-56.134,-106.745Z" style="fill:#646145;"/><ellipse cx="937.46" cy="1692.56" rx="25.007" ry="25.221" style="fill:#b7b7b7;"/><ellipse cx="937.46" cy="1807.15" rx="25.007" ry="25.221" style="fill:#b7b7b7;"/><path d="M760.835,1414.24l55.834,280.637l120.744,-130.933c-69.519,-30.109 -113.504,-81.2 -130.731,-154.282c-15.282,1.994 -30.564,3.562 -45.847,4.578Zm353.25,-0.079l-55.833,280.637l-120.745,-130.933c69.519,-30.109 113.505,-81.2 130.732,-154.282c15.282,1.994 30.564,3.562 45.846,4.578Z" style="fill:#fff;"/></g></g></g></svg>