<?xml version="1.0" encoding="UTF-8" standalone="no"?><!DOCTYPE svg PUBLIC "-//W3C//DTD SVG 1.1//EN" "http://www.w3.org/Graphics/SVG/1.1/DTD/svg11.dtd"><svg width="100%" height="100%" viewBox="0 0 2084 209" version="1.1" xmlns="http://www.w3.org/2000/svg" xmlns:xlink="http://www.w3.org/1999/xlink" xml:space="preserve" xmlns:serif="http://www.serif.com/" style="fill-rule:evenodd;clip-rule:evenodd;stroke-linejoin:round;stroke-miterlimit:2;"><path d="M2067.84,208.333c8.549,0 15.49,-6.941 15.49,-15.49l0,-177.353c0,-8.549 -6.941,-15.49 -15.49,-15.49l-1969.17,0c-8.549,0 -15.49,6.941 -15.49,15.49c-0,0 -0,102.427 -0,119.959c-0,1.559 -0.87,2.987 -2.255,3.702c-9.28,4.792 -45.006,23.237 -65.758,33.951c-1.706,0.881 -2.589,2.815 -2.138,4.682c0.452,1.867 2.121,3.183 4.041,3.187c19.694,0.041 50.792,0.105 61.952,0.128c2.298,0.005 4.158,1.869 4.158,4.167c-0,3.375 -0,7.577 -0,7.577c-0,8.549 6.941,15.49 15.49,15.49l1969.17,0Z" style="fill:#c2f1e3;"/></svg>