<?xml version="1.0" encoding="UTF-8" standalone="no"?><!DOCTYPE svg PUBLIC "-//W3C//DTD SVG 1.1//EN" "http://www.w3.org/Graphics/SVG/1.1/DTD/svg11.dtd"><svg width="100%" height="100%" viewBox="0 0 8684 871" version="1.1" xmlns="http://www.w3.org/2000/svg" xmlns:xlink="http://www.w3.org/1999/xlink" xml:space="preserve" xmlns:serif="http://www.serif.com/" style="fill-rule:evenodd;clip-rule:evenodd;stroke-linejoin:round;stroke-miterlimit:2;"><path d="M8616,868.054c35.621,0 64.542,-28.921 64.542,-64.541l-0,-738.971c-0,-35.621 -28.921,-64.542 -64.542,-64.542l-8204.88,0c-35.621,0 -64.542,28.921 -64.542,64.542l0,499.829c0,6.496 -3.625,12.446 -9.395,15.425c-38.667,19.967 -187.525,96.821 -273.992,141.462c-7.108,3.671 -10.788,11.73 -8.908,19.509c1.883,7.779 8.837,13.262 16.837,13.279c82.058,0.171 211.633,0.437 258.133,0.533c9.575,0.021 17.325,7.788 17.325,17.363l0,31.571c0,35.62 28.921,64.541 64.542,64.541l8204.88,0Z" style="fill:#f1c2c2;"/></svg>