<?xml version="1.0" encoding="UTF-8" standalone="no"?>
<!DOCTYPE svg PUBLIC "-//W3C//DTD SVG 1.1//EN" "http://www.w3.org/Graphics/SVG/1.1/DTD/svg11.dtd">
<svg width="100%" height="100%" viewBox="0 0 500 50" version="1.1" xmlns="http://www.w3.org/2000/svg" xmlns:xlink="http://www.w3.org/1999/xlink" xml:space="preserve" xmlns:serif="http://www.serif.com/" style="fill-rule:evenodd;clip-rule:evenodd;stroke-linejoin:round;stroke-miterlimit:2;">
    <g transform="matrix(5.83815e-18,0.0953442,-6.41667,3.92908e-16,4260,-23.0312)">
        <path d="M765.974,586.553C765.974,586.234 748.502,585.974 726.982,585.974L280.551,585.974C259.03,585.974 241.558,586.234 241.558,586.553L241.558,660.205C241.558,660.525 259.03,660.785 280.551,660.785L582.51,660.785C586.434,660.785 590.029,660.817 591.83,660.869C603.89,661.216 650.32,662.552 677.291,663.329C679.509,663.392 684.376,663.425 689.075,663.409C693.775,663.392 697.088,663.329 697.098,663.257C697.201,662.521 697.363,661.358 697.421,660.94C697.433,660.854 702.125,660.785 707.909,660.785L726.982,660.785C748.502,660.785 765.974,660.525 765.974,660.205L765.974,586.553Z" style="fill:rgb(227,227,227);"/>
        <path d="M765.974,586.553C765.974,586.234 748.502,585.974 726.982,585.974L280.551,585.974C259.03,585.974 241.558,586.234 241.558,586.553L241.558,660.205C241.558,660.525 259.03,660.785 280.551,660.785L582.51,660.785C586.434,660.785 590.029,660.817 591.83,660.869C603.89,661.216 650.32,662.552 677.291,663.329C679.509,663.392 684.376,663.425 689.075,663.409C693.775,663.392 697.088,663.329 697.098,663.257C697.201,662.521 697.363,661.358 697.421,660.94C697.433,660.854 702.125,660.785 707.909,660.785L726.982,660.785C748.502,660.785 765.974,660.525 765.974,660.205L765.974,586.553ZM686.61,663.257L601.149,660.798C597.549,660.694 590.358,660.629 582.51,660.629L280.551,660.629C264.819,660.629 252.047,660.439 252.047,660.205L252.047,586.553C252.047,586.32 264.819,586.13 280.551,586.13L726.982,586.13C742.713,586.13 755.486,586.32 755.486,586.553L755.486,660.205C755.486,660.439 742.713,660.629 726.982,660.629L707.909,660.629C696.341,660.629 686.956,660.768 686.933,660.94L686.61,663.257Z" style="fill:rgb(162,162,162);"/>
    </g>
</svg>
